HIERARCHY
ROOT Root
{
	OFFSET 0.00000 0.00000 0.00000
	CHANNELS 6 Xposition Yposition Zposition Zrotation Xrotation Yrotation
	JOINT Hips
	{
		OFFSET 0 0 0	
		CHANNELS 3 Zrotation Xrotation Yrotation
		JOINT Spine
		{
			OFFSET 0 4 0	
			CHANNELS 3 Zrotation Xrotation Yrotation
			JOINT Spine1
			{
				OFFSET 0 19.4 0	
				CHANNELS 3 Zrotation Xrotation Yrotation
				JOINT Spine2
				{
					OFFSET 0 16.6 0	
					CHANNELS 3 Zrotation Xrotation Yrotation
					JOINT LeftCollar
					{
						OFFSET 0 10 0	
						CHANNELS 3 Zrotation Xrotation Yrotation
						JOINT LeftArm
						{
							OFFSET 15.6 -2 3	
							CHANNELS 3 Zrotation Xrotation Yrotation
							JOINT LeftForeArm
							{
								OFFSET 3.5 -27 -1	
								CHANNELS 3 Zrotation Xrotation Yrotation
								JOINT LeftHand
								{
									OFFSET 1 -27 1	
									CHANNELS 3 Zrotation Xrotation Yrotation
									End Site
									{
										OFFSET 0 -15 0
									}
								}
							}
						}
					}
					JOINT RightCollar
					{
						OFFSET 0 10 0	
						CHANNELS 3 Zrotation Xrotation Yrotation
						JOINT RightArm
						{
							OFFSET -15.6 -2 3	
							CHANNELS 3 Zrotation Xrotation Yrotation
							JOINT RightForeArm
							{
								OFFSET -3.5 -27 -1	
								CHANNELS 3 Zrotation Xrotation Yrotation
								JOINT RightHand
								{
									OFFSET -1 -27 1	
									CHANNELS 3 Zrotation Xrotation Yrotation
									End Site
									{
										OFFSET 0 -15 0
									}
								}
							}
						}
					}
					JOINT Neck
					{
						OFFSET 0 10 0	
						CHANNELS 3 Zrotation Xrotation Yrotation
						JOINT Head
						{
							OFFSET 0 12.7 3	
							CHANNELS 3 Zrotation Xrotation Yrotation
							End Site
							{
								OFFSET 0 12.7 3
							}
						}
					}
				}
			}
		}
	}
	JOINT LeftHip
	{
		OFFSET 0 0 0	
		CHANNELS 3 Zrotation Xrotation Yrotation
		JOINT LeftUpLeg
		{
			OFFSET 8.8 -6 0	
			CHANNELS 3 Zrotation Xrotation Yrotation
			JOINT LeftLeg
			{
				OFFSET 0 -39 2	
				CHANNELS 3 Zrotation Xrotation Yrotation
				JOINT LeftFoot
				{
					OFFSET 0 -43 -2	
					CHANNELS 3 Zrotation Xrotation Yrotation
					JOINT LeftFootFront
					{
						OFFSET 0 -7 8.5	
						CHANNELS 3 Zrotation Xrotation Yrotation
						End Site
						{
							OFFSET 0 -0.5 9
						}
					}
				}
				JOINT LeftHeel
				{
					OFFSET 0 -43 -2	
					CHANNELS 3 Zrotation Xrotation Yrotation
					End Site
					{
						OFFSET 0 -7.5 -5
					}
				}
			}
		}
	}
	JOINT RightHip
	{
		OFFSET 0 0 0	
		CHANNELS 3 Zrotation Xrotation Yrotation
		JOINT RightUpLeg
		{
			OFFSET -8.8 -6 0	
			CHANNELS 3 Zrotation Xrotation Yrotation
			JOINT RightLeg
			{
				OFFSET 0 -39 2	
				CHANNELS 3 Zrotation Xrotation Yrotation
				JOINT RightFoot
				{
					OFFSET 0 -43 -2	
					CHANNELS 3 Zrotation Xrotation Yrotation
					JOINT RightFootFront
					{
						OFFSET 0 -7 8.5	
						CHANNELS 3 Zrotation Xrotation Yrotation
						End Site
						{
							OFFSET 0 -0.5 9
						}
					}
				}
				JOINT RightHeel
				{
					OFFSET 0 -43 -2	
					CHANNELS 3 Zrotation Xrotation Yrotation
					End Site
					{
						OFFSET 0 -7.5 -5
					}
				}
			}
		}
	}
}
MOTION
Frames: 14
Frame Time: 0.05
0 95.5 0 -0 0 -0 1.7293 5.0814 -102.49 -8.1187 -6.8338 20.24 -8.1187 -6.8338 20.24 -6.9849 -5.5551 17.055 -0 0 -0 28.041 8.0693 -27.556 -21.85 -48.28 -12.253 -6.4361 -5.4412 32.276 -0 0 -0 -73.702 -57.829 -38.029 -20.819 -20.157 -48.389 -24.808 -41.757 -29.827 -7.4962 -16.019 -27.391 -7.4962 -16.019 -27.391 -0 0 -0 -0 0 -0 -0 0 -0 -0 0 -0 -0 0 -0 -0 0 -0 -0 0 -0 -0 0 -0 -0 0 -0 -0 0 -0 -0 0 -0 -0 0 -0 
0 95.5 0 -0 0 -0 1.8225 5.2681 -102.33 -8.2771 -6.8725 20.384 -8.2771 -6.8725 20.384 -7.1202 -5.5826 17.178 -0 0 -0 29.112 7.4108 -28.425 -21.859 -48.155 -12.275 -6.4143 -5.7834 32.756 -0 0 -0 -73.817 -56.84 -37.816 -19.893 -17.175 -45.912 -23.7 -40.371 -29.518 -7.4804 -15.93 -27.789 -7.4804 -15.93 -27.789 -0 0 -0 -0 0 -0 -0 0 -0 -0 0 -0 -0 0 -0 -0 0 -0 -0 0 -0 -0 0 -0 -0 0 -0 -0 0 -0 -0 0 -0 -0 0 -0 
0 95.5 0 -0 0 -0 1.7444 5.2197 -102.4 -8.3907 -6.8045 20.412 -8.3907 -6.8045 20.412 -7.2143 -5.5224 17.202 -0 0 -0 29.763 6.8916 -28.924 -21.661 -48.302 -12.1 -6.5307 -5.9256 32.825 -0 0 -0 -73.287 -57.212 -36.635 -20.148 -15.099 -45.063 -21.525 -40.336 -28.394 -7.2903 -15.96 -27.93 -7.2903 -15.96 -27.93 -0 0 -0 -0 0 -0 -0 0 -0 -0 0 -0 -0 0 -0 -0 0 -0 -0 0 -0 -0 0 -0 -0 0 -0 -0 0 -0 -0 0 -0 -0 0 -0 
0 95.5 0 -0 0 -0 1.5243 5.0851 -102.63 -8.3998 -6.6018 20.329 -8.3998 -6.6018 20.329 -7.2166 -5.3525 17.131 -0 0 -0 29.664 6.4943 -28.585 -21.42 -48.513 -11.835 -6.6957 -5.9632 32.252 -0 0 -0 -73.992 -58.319 -36.511 -20.076 -13.967 -44.858 -19.368 -39.072 -26.406 -7.0938 -16.234 -27.715 -7.0938 -16.234 -27.715 -0 0 -0 -0 0 -0 -0 0 -0 -0 0 -0 -0 0 -0 -0 0 -0 -0 0 -0 -0 0 -0 -0 0 -0 -0 0 -0 -0 0 -0 -0 0 -0 
0 95.5 0 -0 0 -0 1.5618 4.9078 -103.02 -8.3436 -6.5241 20.37 -8.3436 -6.5241 20.37 -7.168 -5.2881 17.165 -0 0 -0 29.161 6.2339 -28.323 -21.028 -48.751 -11.429 -7.036 -5.7683 32.122 -0 0 -0 -74.685 -59.203 -35.503 -20.377 -12.87 -44.738 -17.833 -36.606 -24.153 -7.0077 -16.444 -27.525 -7.0077 -16.444 -27.525 -0 0 -0 -0 0 -0 -0 0 -0 -0 0 -0 -0 0 -0 -0 0 -0 -0 0 -0 -0 0 -0 -0 0 -0 -0 0 -0 -0 0 -0 -0 0 -0 
0 95.5 0 -0 0 -0 1.7573 4.7832 -103.34 -8.2323 -6.4587 20.483 -8.2322 -6.4587 20.483 -7.0739 -5.2347 17.258 -0 0 -0 28.352 6.0259 -28.297 -20.57 -49.014 -10.967 -7.2277 -5.6255 32.328 -0 0 -0 -76.045 -59.761 -34.443 -20.509 -11.232 -44.777 -17.531 -35.972 -23.364 -7.0779 -16.584 -27.518 -7.0779 -16.584 -27.518 -0 0 -0 -0 0 -0 -0 0 -0 -0 0 -0 -0 0 -0 -0 0 -0 -0 0 -0 -0 0 -0 -0 0 -0 -0 0 -0 -0 0 -0 -0 0 -0 
0 95.5 0 -0 0 -0 1.9007 4.7714 -103.49 -8.1497 -6.3987 20.535 -8.1497 -6.3987 20.535 -7.0036 -5.1858 17.301 -0 0 -0 27.741 5.9499 -28.317 -20.234 -49.248 -10.637 -7.2856 -5.6456 32.709 -0 0 -0 -77.551 -60.648 -34.184 -21.085 -9.736 -44.924 -17.891 -35.006 -23.201 -7.1286 -16.679 -27.579 -7.1286 -16.679 -27.579 -0 0 -0 -0 0 -0 -0 0 -0 -0 0 -0 -0 0 -0 -0 0 -0 -0 0 -0 -0 0 -0 -0 0 -0 -0 0 -0 -0 0 -0 -0 0 -0 
0 95.5 0 -0 0 -0 2.0975 4.7941 -103.5 -8.1291 -6.4232 20.491 -8.1291 -6.4232 20.491 -6.9865 -5.2072 17.264 -0 0 -0 27.446 6.0649 -28.349 -20.055 -49.398 -10.482 -7.3293 -5.635 33.162 -0 0 -0 -80.298 -61.905 -35.9 -21.048 -7.5147 -45.621 -18.132 -34.435 -22.77 -7.1131 -16.702 -27.586 -7.1131 -16.702 -27.586 -0 0 -0 -0 0 -0 -0 0 -0 -0 0 -0 -0 0 -0 -0 0 -0 -0 0 -0 -0 0 -0 -0 0 -0 -0 0 -0 -0 0 -0 -0 0 -0 
0 95.5 0 -0 0 -0 2.3051 4.8307 -103.41 -8.1889 -6.4824 20.403 -8.1889 -6.4824 20.403 -7.0374 -5.2563 17.191 -0 0 -0 27.405 6.2551 -28.271 -20.033 -49.474 -10.475 -7.3278 -5.3896 33.331 -0 0 -0 -83.449 -62.963 -38.444 -20.967 -5.0689 -46.064 -18.143 -33.707 -23.581 -6.9611 -16.693 -27.527 -6.9611 -16.693 -27.527 -0 0 -0 -0 0 -0 -0 0 -0 -0 0 -0 -0 0 -0 -0 0 -0 -0 0 -0 -0 0 -0 -0 0 -0 -0 0 -0 -0 0 -0 -0 0 -0 
0 95.5 0 -0 0 -0 2.4753 4.8761 -103.3 -8.2745 -6.5455 20.362 -8.2745 -6.5455 20.362 -7.1104 -5.3078 17.158 -0 0 -0 27.472 6.5724 -28.048 -20.184 -49.498 -10.605 -7.3196 -5.1651 33.075 -0 0 -0 -86.215 -63.58 -40.991 -20.88 -3.3676 -46.526 -18.512 -33.54 -24.974 -6.8085 -16.669 -27.418 -6.8085 -16.669 -27.418 -0 0 -0 -0 0 -0 -0 0 -0 -0 0 -0 -0 0 -0 -0 0 -0 -0 0 -0 -0 0 -0 -0 0 -0 -0 0 -0 -0 0 -0 -0 0 -0 
0 95.5 0 -0 0 -0 2.6567 4.9132 -103.15 -8.4045 -6.6572 20.402 -8.4045 -6.6572 20.402 -7.2225 -5.3983 17.193 -0 0 -0 27.807 6.9701 -27.82 -20.502 -49.426 -10.819 -7.3056 -5.0357 32.709 -0 0 -0 -87.536 -63.521 -43.409 -20.939 -3.1148 -46.842 -18.433 -34.567 -26.098 -6.6955 -16.594 -27.334 -6.6955 -16.594 -27.334 -0 0 -0 -0 0 -0 -0 0 -0 -0 0 -0 -0 0 -0 -0 0 -0 -0 0 -0 -0 0 -0 -0 0 -0 -0 0 -0 -0 0 -0 -0 0 -0 
0 95.5 0 -0 0 -0 2.8549 4.9788 -102.93 -8.5327 -6.8106 20.487 -8.5327 -6.8106 20.487 -7.3344 -5.5235 17.266 -0 0 -0 28.312 7.3463 -27.686 -20.925 -49.162 -11.144 -7.1522 -4.9793 32.517 -0 0 -0 -87.496 -62.697 -43.649 -21.194 -3.4814 -47.434 -18.691 -35.685 -26.373 -6.6918 -16.443 -27.323 -6.6918 -16.443 -27.323 -0 0 -0 -0 0 -0 -0 0 -0 -0 0 -0 -0 0 -0 -0 0 -0 -0 0 -0 -0 0 -0 -0 0 -0 -0 0 -0 -0 0 -0 -0 0 -0 
0 95.5 0 -0 0 -0 3.0743 5.1287 -102.62 -8.7735 -6.9415 20.559 -8.7735 -6.9415 20.559 -7.5404 -5.6272 17.33 -0 0 -0 29.253 7.3047 -27.756 -21.394 -48.806 -11.533 -6.9945 -5.3555 32.376 -0 0 -0 -87.56 -61.832 -43.631 -21.521 -3.1285 -47.484 -19.198 -35.478 -26.535 -6.6696 -16.298 -27.48 -6.6696 -16.298 -27.48 -0 0 -0 -0 0 -0 -0 0 -0 -0 0 -0 -0 0 -0 -0 0 -0 -0 0 -0 -0 0 -0 -0 0 -0 -0 0 -0 -0 0 -0 -0 0 -0 
0 95.5 0 -0 0 -0 3.2724 5.3235 -102.39 -9.019 -7.1272 20.67 -9.019 -7.1272 20.67 -7.7519 -5.7764 17.426 -0 0 -0 30.486 7.139 -28.33 -21.667 -48.591 -11.767 -6.9507 -5.6848 32.509 -0 0 -0 -87.106 -61.272 -43.608 -21.661 -2.5865 -47.123 -19.314 -34.007 -26.336 -6.5693 -15.997 -27.783 -6.5693 -15.997 -27.783 -0 0 -0 -0 0 -0 -0 0 -0 -0 0 -0 -0 0 -0 -0 0 -0 -0 0 -0 -0 0 -0 -0 0 -0 -0 0 -0 -0 0 -0 -0 0 -0 
